<svg width="641" height="644" viewBox="0 0 641 644" fill="none" xmlns="http://www.w3.org/2000/svg">
<g clip-path="url(#clip0_46_3)">
<path d="M322.965 657.9V755.314L646 573.913V463.072L322.965 657.9Z" fill="#FFEB68"/>
<path d="M322.965 657.9V781.817L0 582.864V471.044C39.8377 487.618 295.987 631.886 322.965 657.9Z" fill="#FF773E"/>
<path d="M646 529.017V653.424L323.035 840V715.593L402.012 664.753C415.92 655.802 430.737 648.459 446.252 642.865L469.876 634.333C498.181 624.123 524.041 608.249 545.917 587.619C563.25 571.255 583.168 557.829 604.835 547.899L645.93 529.017H646Z" fill="#D87B99"/>
<path d="M322.965 715.593V840L0 653.424V529.017L68.8424 558.318C87.7129 566.36 104.557 578.598 118.045 594.053C135.658 614.263 158.792 628.809 184.581 635.872L203.172 640.977C218.409 645.102 232.736 651.886 245.666 661.047L322.965 715.593Z" fill="#663363"/>
<path opacity="0.3" d="M542.072 634.543C538.787 643.284 535.013 654.683 523.621 650.907C519.847 647.061 519.847 635.662 532.218 630.347C537.599 627.2 542.002 629.088 542.072 634.543Z" fill="url(#paint0_linear_46_3)" style="mix-blend-mode:overlay"/>
<path opacity="0.3" d="M622.726 570.276C622.726 572.654 620.769 575.731 618.393 577.13C616.017 578.528 614.06 577.689 614.06 575.311C614.06 572.934 616.017 569.857 618.393 568.458C620.769 567.06 622.726 567.899 622.726 570.276Z" fill="url(#paint1_linear_46_3)" style="mix-blend-mode:overlay"/>
<path opacity="0.3" d="M619.371 596.92C618.882 603.843 610.984 615.662 603.086 611.745C591.275 607.829 607 599.927 609.167 592.584C614.758 589.368 619.371 591.256 619.371 596.92Z" fill="url(#paint2_linear_46_3)" style="mix-blend-mode:overlay"/>
<path opacity="0.3" d="M631.463 628.879C629.296 635.382 626.431 644.123 617.625 641.186C614.689 638.249 614.619 629.508 623.845 625.662C628.038 623.284 631.393 624.683 631.463 628.879Z" fill="url(#paint3_linear_46_3)" style="mix-blend-mode:overlay"/>
<g style="mix-blend-mode:color-burn" opacity="0.3">
<path opacity="0.3" d="M104.626 629.718C107.911 638.459 111.685 649.858 123.078 646.081C126.852 642.235 126.852 630.837 114.481 625.522C109.099 622.375 104.696 624.263 104.626 629.718Z" fill="url(#paint4_linear_46_3)" style="mix-blend-mode:overlay"/>
<path opacity="0.3" d="M23.9727 565.451C23.9727 567.829 25.9296 570.906 28.3059 572.304C30.6822 573.703 32.6391 572.864 32.6391 570.486C32.6391 568.108 30.6822 565.032 28.3059 563.633C25.9296 562.234 23.9727 563.073 23.9727 565.451Z" fill="url(#paint5_linear_46_3)" style="mix-blend-mode:overlay"/>
<path opacity="0.3" d="M27.2573 592.165C27.6767 597.34 32.1497 605.312 37.7409 607.27C39.628 607.899 41.5849 607.969 42.843 607.27C40.9559 602.584 40.9559 597.969 38.6495 593.773C37.8807 591.605 38.0205 589.507 37.4614 587.689C31.8701 584.472 27.2573 586.36 27.2573 592.025V592.165Z" fill="url(#paint6_linear_46_3)" style="mix-blend-mode:overlay"/>
<path opacity="0.3" d="M15.2363 624.053C17.4029 630.557 20.2685 639.298 29.0747 636.361C32.0101 633.424 32.08 624.683 22.8544 620.836C18.661 618.459 15.3062 619.857 15.2363 624.053Z" fill="url(#paint7_linear_46_3)" style="mix-blend-mode:overlay"/>
</g>
<path d="M322.965 289.084L645.93 475.66L322.965 662.236L0 475.66L322.965 289.084Z" fill="#FFAB48"/>
<path d="M76.74 410.624L81.3528 407.687C74.853 418.456 70.3101 430.345 67.9338 442.652L54.5148 491.115L0 459.576L76.74 410.554V410.624Z" fill="#FCCE71"/>
<path d="M322.965 273L377.48 304.469L372.658 320.973C372.308 322.231 371.679 323.49 370.91 324.539C359.239 340.833 344.212 359.155 326.809 369.155L319.611 373.351C317.863 374.33 315.976 374.889 313.949 374.959L238.328 372.302L194.716 347.127L322.965 273Z" fill="#FCCE71"/>
<path d="M606.163 436.568L645.931 459.506L517.681 533.563L515.654 532.444V530.626C516.423 518.667 522.643 507.688 532.568 500.975L592.185 460.904C596.099 458.317 599.104 454.541 600.781 450.135L606.093 436.499L606.163 436.568Z" fill="#FCCE71"/>
<path d="M322.965 646.151V662.236L283.197 639.298V623.214L322.965 646.151Z" fill="#FF773E"/>
<path d="M253.983 606.291V622.375L81.2129 522.583V506.499L253.983 606.291Z" fill="#FF773E"/>
<path d="M54.5148 491.115V507.129L0 475.66V459.576L54.5148 491.115Z" fill="#FF773E"/>
<path d="M100.922 406.218V422.303L105.186 446.289C106.164 451.743 110.847 455.66 116.298 455.799L189.684 456.848C192.829 456.848 195.485 459.086 196.114 462.163L201.006 486.709C202.963 496.429 209.533 504.611 218.688 508.597L243.709 519.367C248.322 521.325 252.306 524.402 255.381 528.388L268.381 544.891C269.709 546.57 271.176 548.108 272.854 549.437L297.176 569.647V559.087L272.294 532.584C271.036 531.675 269.848 530.626 268.87 529.367L253.075 504.681C251.467 502.653 249.37 500.975 246.924 499.996L211.629 489.436C206.877 487.408 203.382 483.142 202.404 478.037L196.044 446.079C195.415 443.002 192.759 440.764 189.614 440.764L112.874 439.645C109.309 439.645 106.304 437.058 105.675 433.491L100.853 406.148L100.922 406.218Z" fill="#FF773E"/>
<path d="M194.855 347.197V363.281L238.467 388.456V372.372L194.855 347.197Z" fill="#FF773E"/>
<path d="M352.459 378.106L357.072 389.575L383.84 395.869C392.227 397.827 399.426 403.351 403.479 410.974L410.888 424.82C410.888 414.26 408.302 403.841 403.27 394.54L400.404 389.155C398.307 385.169 394.533 382.302 390.2 381.253L352.459 378.106Z" fill="#FF773E"/>
<path d="M391.738 517.409V533.493L413.474 547.129C426.753 555.451 438.215 566.36 447.161 579.158L446.113 572.864C437.097 560.066 426.683 539.367 413.404 531.045L391.668 517.409H391.738Z" fill="#FF773E"/>
<path d="M515.794 532.584V548.668L517.821 549.787V533.772L515.794 532.584Z" fill="#FF773E"/>
<path d="M81.3527 407.617L76.7399 431.324L54.5146 507.199V491.115L67.9337 442.652C70.31 430.275 74.8528 418.456 81.3527 407.687V407.617Z" fill="#FFEB68"/>
<path d="M279.633 571.675L253.983 606.291V622.375L279.633 587.759V571.675Z" fill="#FFEB68"/>
<path d="M322.965 646.151V662.236L399.705 617.899L414.522 568.248V552.304L404.527 594.403L322.965 646.151Z" fill="#FFEB68"/>
<path d="M297.036 559.018V569.577L338.9 545.381L370.071 541.255L373.356 497.338C374.335 483.842 377.27 470.625 382.023 457.967L394.324 424.96V408.876L382.023 441.883C377.27 454.541 374.405 467.828 373.356 481.324L370.071 525.241L341.416 529.087C339.739 529.297 338.131 529.786 336.594 530.556L297.036 559.087V559.018Z" fill="#FFEB68"/>
<path d="M238.397 372.302V388.386L317.024 386.358L349.174 367.756C351.83 366.218 354.136 364.12 355.953 361.602L370.001 341.952C371.399 339.994 372.447 337.756 373.146 335.448L377.48 320.553V304.469L372.657 320.973C372.308 322.231 371.679 323.49 370.91 324.539L366.297 330.973C353.926 348.246 337.991 362.721 319.61 373.351C317.863 374.33 315.976 374.889 313.949 374.959L238.327 372.302H238.397Z" fill="#FFEB68"/>
<path d="M580.652 445.939L510.691 493.422C501.955 499.366 495.665 508.318 493.149 518.597C490.703 528.528 485.251 537.409 477.703 544.122C470.854 550.206 464.214 556.43 458.413 563.493L446.112 572.794L447.161 579.088L469.526 566.15C481.337 559.297 489.934 547.968 493.219 534.682C495.735 524.402 502.025 515.451 510.761 509.506L580.722 462.023V445.939H580.652Z" fill="#FFEB68"/>
<path d="M517.681 533.633V549.717L645.93 475.66V459.576L517.681 533.633Z" fill="#FFEB68"/>
<path d="M394.254 408.876L381.953 441.883C377.2 454.541 374.335 467.758 373.356 481.254L370.072 525.241L341.416 529.017C339.739 529.227 338.132 529.716 336.594 530.486L297.176 559.017L297.106 559.087C285.224 544.122 262.999 539.926 253.074 504.751C252.306 502.234 249.3 501.115 246.924 500.066L211.629 489.506C206.877 487.478 203.452 483.212 202.404 478.107L196.114 446.149C195.485 443.072 192.829 440.834 189.684 440.834L112.944 439.715C109.379 439.715 106.374 437.058 105.745 433.561L100.922 406.218L144.185 392.302C155.996 388.526 166.969 382.162 176.125 373.77L183.114 367.477C187.936 363.141 194.925 361.952 200.866 364.609L241.822 382.652C247.553 385.169 253.843 386.148 259.994 385.449L295.918 381.533C305.353 380.484 314.788 380.484 324.153 381.463L364.341 385.519C366.507 385.729 368.534 386.288 370.491 387.057C370.77 387.127 371.05 387.267 371.26 387.407C371.26 387.407 371.819 387.617 372.098 387.757C372.867 388.106 373.636 388.526 374.335 389.085C375.942 390.064 377.41 391.253 378.668 392.652L394.184 409.016L394.254 408.876Z" fill="#FCCE71"/>
<path d="M414.522 552.304L404.528 594.403L322.965 646.151L283.197 623.214L303.326 582.165C308.008 572.584 314.508 564.053 322.406 556.92L333.099 547.339C334.777 545.801 336.873 544.822 339.04 544.402L373.426 537.758C380.345 536.43 387.474 537.549 393.625 540.905L414.522 552.304Z" fill="#FCCE71"/>
<path d="M81.2129 506.499C81.2129 506.499 92.8148 465.59 107.352 461.254C118.535 457.897 150.475 446.359 165.641 449.086C170.184 449.925 173.958 453.002 175.705 457.268C179.968 467.898 184.022 491.884 189.054 497.199C194.366 502.793 235.532 523.772 251.676 532.863C256.988 535.87 261.391 540.206 264.466 545.451L279.772 571.745L254.123 606.361L81.2828 506.499H81.2129Z" fill="#FCCE71"/>
<path d="M576.948 419.715L580.582 445.939L510.622 493.422C501.885 499.366 495.595 508.318 493.079 518.597C490.633 528.528 485.181 537.409 477.633 544.122C470.784 550.206 464.144 556.43 458.343 563.493L446.043 572.794L438.145 561.535C425.704 543.842 409.909 528.807 391.598 517.339L406.974 430.694C409.49 416.498 407.183 401.883 400.404 389.225C398.307 385.239 394.533 382.372 390.2 381.323L352.459 378.176C362.523 354.959 382.302 338.945 401.382 322.371L404.178 319.994L577.018 419.855L576.948 419.715Z" fill="#FCCE71"/>
<path d="M394.254 449.785C394.533 450.904 386.356 469.156 381.953 482.233C377.62 495.31 377.061 524.751 377.061 524.751L387.404 526.08L394.254 449.785Z" fill="#FCCE71"/>
<path d="M387.334 533.633L387.404 526.08L377.061 524.751L378.109 532.584L387.334 533.633Z" fill="#FF773E"/>
<path d="M80.8637 432.512L64.02 491.185L76.7401 496.709L94.4924 449.086L80.8637 432.512Z" fill="#FCCE71"/>
<path d="M76.7401 504.401V496.709L64.02 491.185V498.947L76.7401 504.401Z" fill="#FF773E"/>
<path d="M94.4925 449.086V456.848L76.7402 504.401V496.709L94.4925 449.086Z" fill="#FFEB68"/>
<path d="M422 564.402C422.769 564.612 435.908 570.906 440.311 582.304L411.936 602.515L422 564.402Z" fill="#FCCE71"/>
<path d="M422 559.997C422.769 560.206 435.908 566.5 440.311 577.899L411.936 598.109L422 559.997Z" fill="#FCCE71"/>
<path d="M411.866 602.584V598.109L440.242 577.899V582.374L411.866 602.584Z" fill="#FFEB68"/>
<path d="M262.58 619.718L275.37 628.319V623.214L264.676 612.095L262.58 619.718Z" fill="#FF773E"/>
<path d="M275.37 623.214L297.106 579.088L289.557 578.668L264.676 612.095L275.37 623.214Z" fill="#FCCE71"/>
<path d="M275.37 628.319L297.106 583.493V579.088L275.37 623.214V628.319Z" fill="#FFEB68"/>
</g>
<g clip-path="url(#clip1_46_3)">
<path d="M472.387 201.728L388.126 152.748L368.583 99.1949L376.043 97.4113L435.406 100.887L472.387 201.728Z" fill="#B3487D"/>
<path d="M474.309 332.799L414.718 298.133L388.126 152.748L472.387 201.728L474.309 332.799Z" fill="#943573"/>
<path d="M474.309 332.799L473.714 420.286L413.619 454.678L261.987 454.312L260.751 421.796L259.835 396.78L261.987 372.45L260.339 358.821L263.405 332.708L267.525 297.813L414.718 298.134L474.309 332.799Z" fill="#B3487D"/>
<path d="M425.931 520.762L249.446 520.35L261.987 454.312L413.619 454.678L425.931 520.762Z" fill="#C95886"/>
<path d="M191.273 494.785L189.534 534.482L147.427 509.969L134.978 462.041L191.273 494.785Z" fill="#943573"/>
<path d="M191.274 494.785L134.978 462.041L125 423.854L167.108 448.321L191.274 494.785Z" fill="#943573"/>
<path d="M221.527 246.318L167.108 448.321L125 423.854L148.8 190.707L221.527 246.318Z" fill="#943573"/>
<path d="M302.538 103.722L221.527 246.318L148.8 190.707L218.277 54.7424L219.284 55.2912L219.513 55.4741L302.538 103.722Z" fill="#943573"/>
<path d="M439.845 40.2908L388.492 65.8555L302.584 103.722C301.44 103.265 218.323 54.7424 218.323 54.7424L370.505 0L439.845 40.2908Z" fill="#B3487D"/>
<path d="M504.242 374.508L503.555 476.309L473.714 420.286L474.309 332.799L504.242 374.508Z" fill="#C95886"/>
<path d="M316.498 112.915C316.498 112.915 316.086 112.869 315.903 112.778L315.216 112.366C314.667 112.046 314.484 111.36 314.804 110.811C315.125 110.262 315.811 110.079 316.36 110.399L317.047 110.811C317.596 111.131 317.779 111.817 317.459 112.366C317.23 112.732 316.864 112.915 316.452 112.915H316.498Z" fill="black"/>
<path d="M260.339 423.396C265.74 426.506 271.507 428.93 277.594 430.622C287.023 433.275 296.817 435.012 305.788 435.378C322.905 436.064 341.808 433.595 358.514 427.741C377.874 420.927 397.875 408.03 398.195 387.404C398.333 379.401 395.266 371.992 390.14 365.956C382.314 356.672 370.322 351.23 358.376 348.577C338.238 344.095 306.932 345.513 290.455 357.815C287.755 359.827 285.329 362.205 283.681 365.132C282.034 368.059 281.21 371.489 281.439 374.782C281.622 378.121 282.903 381.322 284.551 384.203C285.97 386.673 288.991 388.273 291.737 389.142C295.673 390.331 300.25 390.468 304.369 389.508C307.161 388.868 310.273 387.542 312.104 385.392C315.72 381.185 312.104 378.669 311.417 374.736C310.914 371.809 312.562 368.882 315.216 367.51C323.638 363.029 338.284 362.48 347.895 364.721C367.301 369.203 373.206 386.901 364.143 399.295C361.168 403.319 356.775 406.475 352.381 408.853C338.513 416.353 318.832 419.372 302.813 417.817C286.656 416.216 270.134 409.31 259.424 398.335C253.337 391.063 251.277 384.477 251.323 378.944C251.323 367.556 259.973 360.422 259.973 360.422C275.214 347.525 301.989 339.796 321.807 336.824C332.563 335.223 344.28 334.446 355.127 335.177C366.432 335.909 377.096 338.196 387.394 343.181C400.026 349.309 411.24 359.37 416.274 372.084C420.714 383.38 419.478 394.722 413.345 404.097C410.736 408.121 406.754 412.329 402.91 415.164C401.399 416.262 399.752 417.314 398.836 418.914C398.15 420.103 397.875 421.613 398.195 422.985C398.516 424.357 399.385 425.5 400.438 426.415C405.061 430.531 414.443 431.308 420.348 429.204C423.826 427.969 426.847 425.591 429.685 423.122C432.522 420.652 435.177 418.091 437.511 415.301C445.383 405.972 449.731 394.401 448.679 381.871C447.535 368.379 439.891 352.967 423.368 340.254C405.656 326.579 383.412 320.04 361.168 318.21C328.947 315.558 291.462 322.052 263.04 334.308C263.04 334.308 217.316 354.248 228.392 385.209C229.582 388.502 231.001 391.703 232.603 394.722C239.057 406.887 248.76 416.719 260.431 423.396H260.339Z" fill="#FF8A00"/>
<path d="M261.987 454.312L249.446 520.35L189.534 534.482L191.273 494.785L261.987 454.312Z" fill="#E6627D"/>
<path d="M388.492 65.8555L376.043 97.4113L368.583 99.1949L316.498 111.771L302.538 103.722L388.492 65.8555Z" fill="#E6627D"/>
<path d="M316.498 111.771L277.96 208.771L221.527 246.318L302.538 103.722L316.498 111.771Z" fill="#C95886"/>
<path d="M504.105 97.9601L472.387 201.728L435.405 100.887L439.845 40.3365L504.105 97.9601Z" fill="#C95886"/>
<path d="M555 257.294L474.309 332.799L472.387 201.728L504.105 97.9601L555 257.294Z" fill="#E6627D"/>
<path d="M555 257.294L536.601 333.165L504.243 374.508L474.31 332.799L555 257.294Z" fill="#C95886"/>
<path d="M503.555 476.309L425.931 520.762L413.619 454.678L473.714 420.286L503.555 476.309Z" fill="#E6627D"/>
<path d="M439.845 40.3365L435.405 100.887L376.043 97.4113L388.492 65.8555L439.845 40.3365Z" fill="#E6627D"/>
<path d="M277.96 208.771L261.987 372.45L167.107 448.321L221.527 246.318L277.96 208.771Z" fill="#E6627D"/>
<path d="M261.987 454.312L191.273 494.785L167.107 448.321L261.987 372.45V454.312Z" fill="#C95886"/>
<mask id="mask0_46_3" style="mask-type:luminance" maskUnits="userSpaceOnUse" x="127" y="27" width="427" height="470">
<path d="M553.123 258.712L472.433 334.217L471.838 421.704L411.743 456.05L260.11 455.729L189.397 496.203L165.231 449.738L127.06 164.822L284.093 29.9094L396.548 27.1654L502.228 99.3778L553.123 258.712Z" fill="white"/>
</mask>
<g mask="url(#mask0_46_3)">
<path d="M342.311 642C431.844 642 504.425 500.577 504.425 326.122C504.425 151.668 431.844 10.2442 342.311 10.2442C252.778 10.2442 180.197 151.668 180.197 326.122C180.197 500.577 252.778 642 342.311 642Z" fill="url(#paint8_radial_46_3)" style="mix-blend-mode:color-dodge"/>
</g>
<path d="M474.309 332.799L474.63 376.566V420.332L474.675 420.881L474.172 421.155L414.306 455.318L414.031 455.455H413.711L337.826 455.181C312.516 455.043 287.251 454.723 261.941 454.312C287.251 453.9 312.516 453.58 337.826 453.443L413.711 453.168L413.162 453.306L473.211 419.463L472.707 420.286L473.348 376.52L474.263 332.753L474.309 332.799Z" fill="white"/>
<path d="M474.721 419.738L503.555 476.309L472.707 420.835L474.721 419.738Z" fill="white"/>
<path d="M414.855 454.083L425.931 520.762L412.612 454.495L414.855 454.083Z" fill="white"/>
<path d="M191.273 494.785C202.578 487.24 214.341 480.425 226.058 473.565C237.912 466.934 249.72 460.257 261.987 454.312C250.682 461.903 238.919 468.672 227.202 475.532C215.348 482.163 203.54 488.84 191.273 494.785Z" fill="white"/>
<path d="M555 257.294C542.185 270.556 528.775 283.179 515.456 295.847C501.908 308.332 488.452 320.863 474.355 332.753C487.171 319.491 500.581 306.868 513.9 294.2C527.448 281.715 540.949 269.184 555 257.294Z" fill="white"/>
<path d="M302.813 103.219L316.498 111.771L302.218 104.226L302.813 103.219Z" fill="white"/>
<path d="M414.718 298.133C425.107 303.073 435.085 308.789 445.063 314.46C454.903 320.36 464.835 326.168 474.263 332.753C463.874 327.814 453.896 322.098 443.918 316.427C434.078 310.527 424.146 304.719 414.718 298.133Z" fill="#80225F"/>
<path d="M249.446 520.35C251.048 509.237 253.107 498.261 255.121 487.239C257.272 476.264 259.378 465.242 261.941 454.312C260.339 465.425 258.279 476.401 256.265 487.422C254.114 498.398 252.009 509.42 249.446 520.35Z" fill="#80225F"/>
<path d="M504.243 374.508C498.888 367.831 493.853 360.879 488.818 353.973C483.875 346.976 478.932 340.025 474.31 332.799C479.71 339.476 484.699 346.428 489.734 353.333C494.677 360.33 499.62 367.282 504.243 374.508Z" fill="#80225F"/>
<path d="M125 423.854C132.277 427.512 139.28 431.582 146.328 435.607C153.331 439.769 160.334 443.839 167.108 448.366C159.83 444.708 152.828 440.638 145.779 436.613C138.776 432.451 131.774 428.381 125 423.854Z" fill="#C95886"/>
<path d="M134.978 462.041C144.589 467.071 153.972 472.513 163.4 477.91C172.737 483.444 182.12 488.886 191.228 494.785C181.616 489.755 172.234 484.313 162.805 478.916C153.468 473.382 144.086 467.94 134.978 462.041Z" fill="#80225F"/>
<path d="M148.8 190.707C161.203 199.579 173.24 208.954 185.507 218.055C197.498 227.476 209.673 236.668 221.527 246.318C209.123 237.446 197.086 228.071 184.82 218.97C172.829 209.549 160.654 200.356 148.8 190.707Z" fill="#C95886"/>
<path d="M218.277 54.7424L302.813 103.265L302.218 104.226L218.277 54.7424Z" fill="#C95886"/>
<path d="M439.845 40.3365L406.159 57.4864L389.316 66.0385L372.061 73.7673L302.95 104.454L303.316 104.088L262.994 175.523C249.629 199.35 235.99 223.04 222.396 246.775L222.488 246.547L194.981 347.479L181.159 397.923L167.107 448.321L180.289 397.694L193.653 347.114L220.566 245.998V245.861L220.657 245.769C234.113 221.988 247.478 198.115 261.117 174.426L301.851 103.265L301.989 103.036L302.218 102.945L371.512 72.6698L388.858 65.1238L405.839 56.8461L439.799 40.2908L439.845 40.3365Z" fill="white"/>
<path d="M388.126 152.748L472.982 200.768L471.792 202.734L388.126 152.748Z" fill="#80225F"/>
<path d="M504.105 97.9601C499.207 115.384 494.218 132.763 489.092 150.096L473.485 202.048L472.478 205.341L471.288 202.094L453.072 151.559C447.076 134.684 441.172 117.763 435.405 100.841C441.95 117.488 448.404 134.226 454.72 150.965L473.439 201.317H471.288L487.399 149.593C492.845 132.351 498.429 115.156 504.105 97.9601Z" fill="white"/>
<path d="M473.532 201.728L474.31 332.799L471.243 201.774L473.532 201.728Z" fill="white"/>
<path d="M346.339 300.923C358.169 300.923 367.759 291.341 367.759 279.52C367.759 267.7 358.169 258.117 346.339 258.117C334.509 258.117 324.919 267.7 324.919 279.52C324.919 291.341 334.509 300.923 346.339 300.923Z" fill="url(#paint9_radial_46_3)" style="mix-blend-mode:color-dodge"/>
<path d="M348.399 279.063C350.779 289.627 351.786 298.408 350.641 298.637C349.497 298.911 346.659 290.542 344.279 279.977C341.899 269.413 340.893 260.632 342.037 260.404C343.181 260.129 346.019 268.498 348.399 279.063Z" fill="url(#paint10_radial_46_3)" style="mix-blend-mode:color-dodge"/>
<path d="M347.941 281.761C336.499 289.902 326.475 295.481 325.606 294.246C324.736 293.011 333.295 285.42 344.783 277.325C356.225 269.184 366.249 263.605 367.118 264.84C367.988 266.075 359.429 273.666 347.941 281.761Z" fill="url(#paint11_radial_46_3)" style="mix-blend-mode:color-dodge"/>
<path d="M346.339 281.853C376.571 281.853 401.079 280.808 401.079 279.52C401.079 278.232 376.571 277.188 346.339 277.188C316.107 277.188 291.599 278.232 291.599 279.52C291.599 280.808 316.107 281.853 346.339 281.853Z" fill="url(#paint12_radial_46_3)" style="mix-blend-mode:color-dodge"/>
<path d="M342.815 283.042C324.69 264.931 311.554 248.65 313.522 246.73C315.49 244.809 331.738 257.888 349.863 275.999C367.988 294.109 381.123 310.39 379.155 312.311C377.187 314.277 360.939 301.152 342.815 283.042Z" fill="url(#paint13_radial_46_3)" style="mix-blend-mode:color-dodge"/>
<path d="M348.307 280.252C339.016 304.993 330.64 324.704 329.542 324.293C328.443 323.881 335.08 303.484 344.371 278.743C353.662 254.001 362.038 234.29 363.136 234.702C364.235 235.113 357.598 255.51 348.307 280.252Z" fill="url(#paint14_radial_46_3)" style="mix-blend-mode:color-dodge"/>
<path d="M180.106 93.6155C188.852 93.6155 195.942 86.531 195.942 77.7919C195.942 69.0527 188.852 61.9682 180.106 61.9682C171.36 61.9682 164.27 69.0527 164.27 77.7919C164.27 86.531 171.36 93.6155 180.106 93.6155Z" fill="url(#paint15_radial_46_3)" style="mix-blend-mode:color-dodge"/>
<path d="M181.616 77.426C183.355 85.2463 184.133 91.6947 183.264 91.9233C182.44 92.1063 180.335 85.9323 178.55 78.112C176.81 70.2916 176.032 63.8433 176.902 63.6146C177.772 63.3859 179.831 69.6056 181.616 77.426Z" fill="url(#paint16_radial_46_3)" style="mix-blend-mode:color-dodge"/>
<path d="M181.296 79.4383C172.829 85.4293 165.46 89.5452 164.773 88.6763C164.132 87.7617 170.449 82.1822 178.916 76.1455C187.383 70.1544 194.752 66.0385 195.439 66.9074C196.079 67.8221 189.763 73.4015 181.296 79.4383Z" fill="url(#paint17_radial_46_3)" style="mix-blend-mode:color-dodge"/>
<path d="M180.106 79.5297C202.451 79.5297 220.566 78.7516 220.566 77.7918C220.566 76.8321 202.451 76.054 180.106 76.054C157.76 76.054 139.646 76.8321 139.646 77.7918C139.646 78.7516 157.76 79.5297 180.106 79.5297Z" fill="url(#paint18_radial_46_3)" style="mix-blend-mode:color-dodge"/>
<path d="M177.497 80.3986C164.087 66.9989 154.429 54.9711 155.848 53.5533C157.313 52.0899 169.304 61.7853 182.715 75.1851C196.125 88.5848 205.782 100.613 204.363 102.03C202.899 103.494 190.907 93.7984 177.497 80.3986Z" fill="url(#paint19_radial_46_3)" style="mix-blend-mode:color-dodge"/>
<path d="M181.571 78.3406C174.705 96.6338 168.481 111.223 167.703 110.903C166.879 110.582 171.822 95.5363 178.641 77.243C185.507 58.9498 191.731 44.361 192.509 44.6811C193.333 45.0013 188.39 60.0474 181.571 78.3406Z" fill="url(#paint20_radial_46_3)" style="mix-blend-mode:color-dodge"/>
<path d="M384.968 171.819C384.968 176.438 381.214 180.142 376.638 180.142C372.061 180.142 368.308 176.392 368.308 171.819C368.308 167.246 372.061 163.495 376.638 163.495C381.214 163.495 384.968 167.246 384.968 171.819Z" fill="url(#paint21_radial_46_3)" style="mix-blend-mode:color-dodge"/>
<path d="M377.416 171.636C378.332 175.752 378.744 179.182 378.286 179.273C377.828 179.365 376.73 176.118 375.814 172.002C374.899 167.886 374.487 164.456 374.945 164.364C375.402 164.273 376.501 167.52 377.416 171.636Z" fill="url(#paint22_radial_46_3)" style="mix-blend-mode:color-dodge"/>
<path d="M377.233 172.688C372.748 175.843 368.857 178.039 368.537 177.536C368.216 177.032 371.558 174.106 375.997 170.95C380.483 167.794 384.373 165.599 384.693 166.102C385.014 166.56 381.673 169.532 377.233 172.688Z" fill="url(#paint23_radial_46_3)" style="mix-blend-mode:color-dodge"/>
<path d="M376.638 172.734C364.875 172.734 355.31 172.322 355.31 171.819C355.31 171.316 364.875 170.904 376.638 170.904C388.401 170.904 397.966 171.316 397.966 171.819C397.966 172.322 388.401 172.734 376.638 172.734Z" fill="url(#paint24_radial_46_3)" style="mix-blend-mode:color-dodge"/>
<path d="M375.265 173.191C368.216 166.148 363.09 159.791 363.868 159.014C364.646 158.236 370.962 163.358 378.057 170.401C385.105 177.444 390.231 183.801 389.453 184.533C388.675 185.31 382.359 180.188 375.265 173.145V173.191Z" fill="url(#paint25_radial_46_3)" style="mix-blend-mode:color-dodge"/>
<path d="M377.37 172.093C373.755 181.743 370.459 189.426 370.047 189.243C369.635 189.106 372.198 181.148 375.814 171.499C379.43 161.849 382.725 154.166 383.137 154.349C383.549 154.486 380.986 162.444 377.37 172.093Z" fill="url(#paint26_radial_46_3)" style="mix-blend-mode:color-dodge"/>
<path d="M336.041 136.422C339.454 136.422 342.22 133.657 342.22 130.248C342.22 126.838 339.454 124.074 336.041 124.074C332.629 124.074 329.862 126.838 329.862 130.248C329.862 133.657 332.629 136.422 336.041 136.422Z" fill="url(#paint27_radial_46_3)" style="mix-blend-mode:color-dodge"/>
<path d="M336.636 130.11C337.322 133.175 337.597 135.69 337.277 135.736C336.956 135.827 336.132 133.403 335.446 130.339C334.759 127.275 334.485 124.76 334.805 124.714C335.125 124.668 335.949 127.046 336.636 130.11Z" fill="url(#paint28_radial_46_3)" style="mix-blend-mode:color-dodge"/>
<path d="M336.499 130.888C333.203 133.22 330.32 134.821 330.091 134.501C329.817 134.135 332.288 131.94 335.629 129.607C338.97 127.275 341.808 125.674 342.037 125.994C342.311 126.36 339.84 128.555 336.499 130.888Z" fill="url(#paint29_radial_46_3)" style="mix-blend-mode:color-dodge"/>
<path d="M336.041 130.888C327.345 130.888 320.296 130.568 320.296 130.202C320.296 129.836 327.345 129.516 336.041 129.516C344.737 129.516 351.785 129.836 351.785 130.202C351.785 130.568 344.737 130.888 336.041 130.888Z" fill="url(#paint30_radial_46_3)" style="mix-blend-mode:color-dodge"/>
<path d="M335.034 131.254C329.816 126.04 326.018 121.375 326.613 120.781C327.208 120.186 331.876 123.982 337.094 129.196C342.311 134.409 346.11 139.074 345.515 139.669C344.966 140.217 340.252 136.467 335.034 131.254Z" fill="url(#paint31_radial_46_3)" style="mix-blend-mode:color-dodge"/>
<path d="M336.636 130.431C333.981 137.565 331.555 143.236 331.235 143.099C330.915 142.961 332.837 137.108 335.492 129.973C338.146 122.839 340.572 117.168 340.892 117.305C341.213 117.442 339.29 123.296 336.636 130.431Z" fill="url(#paint32_radial_46_3)" style="mix-blend-mode:color-dodge"/>
<path d="M380.62 95.1704C380.62 96.9082 379.201 98.326 377.462 98.326C375.723 98.326 374.304 96.9082 374.304 95.1704C374.304 93.4325 375.723 92.0148 377.462 92.0148C379.201 92.0148 380.62 93.4325 380.62 95.1704Z" fill="url(#paint33_radial_46_3)" style="mix-blend-mode:color-dodge"/>
<path d="M377.782 95.0789C378.148 96.6338 378.286 97.9144 378.103 97.9601C377.92 97.9601 377.508 96.771 377.187 95.2161C376.821 93.6612 376.684 92.3807 376.867 92.3349C377.05 92.3349 377.462 93.524 377.782 95.0789Z" fill="url(#paint34_radial_46_3)" style="mix-blend-mode:color-dodge"/>
<path d="M377.736 95.4905C376.043 96.6796 374.578 97.5028 374.487 97.3198C374.349 97.1369 375.631 96.0393 377.279 94.8503C378.972 93.6612 380.437 92.838 380.528 93.0209C380.665 93.2039 379.384 94.3015 377.736 95.4905Z" fill="url(#paint35_radial_46_3)" style="mix-blend-mode:color-dodge"/>
<path d="M377.508 95.4905C381.931 95.4905 385.517 95.3472 385.517 95.1704C385.517 94.9936 381.931 94.8503 377.508 94.8503C373.084 94.8503 369.498 94.9936 369.498 95.1704C369.498 95.3472 373.084 95.4905 377.508 95.4905Z" fill="url(#paint36_radial_46_3)" style="mix-blend-mode:color-dodge"/>
<path d="M376.958 95.6734C374.304 93.0209 372.381 90.6428 372.656 90.3684C372.931 90.094 375.311 92.0148 377.965 94.6673C380.62 97.3198 382.542 99.6979 382.267 99.9723C381.993 100.247 379.613 98.326 376.958 95.6734Z" fill="url(#paint37_radial_46_3)" style="mix-blend-mode:color-dodge"/>
<path d="M377.783 95.2618C376.41 98.8747 375.174 101.756 375.036 101.71C374.899 101.664 375.86 98.6461 377.188 95.0332C378.561 91.4203 379.796 88.5391 379.934 88.5848C380.071 88.6306 379.11 91.6489 377.783 95.2618Z" fill="url(#paint38_radial_46_3)" style="mix-blend-mode:color-dodge"/>
<path d="M531.795 287.203C534.753 287.203 537.15 284.808 537.15 281.853C537.15 278.897 534.753 276.502 531.795 276.502C528.838 276.502 526.44 278.897 526.44 281.853C526.44 284.808 528.838 287.203 531.795 287.203Z" fill="url(#paint39_radial_46_3)" style="mix-blend-mode:color-dodge"/>
<path d="M532.298 281.715C532.893 284.368 533.122 286.563 532.847 286.609C532.573 286.654 531.841 284.597 531.246 281.944C530.651 279.291 530.422 277.096 530.696 277.051C530.971 277.005 531.703 279.063 532.298 281.715Z" fill="url(#paint40_radial_46_3)" style="mix-blend-mode:color-dodge"/>
<path d="M532.207 282.401C529.324 284.414 526.852 285.831 526.623 285.511C526.394 285.191 528.545 283.316 531.429 281.258C534.312 279.246 536.784 277.828 537.013 278.148C537.242 278.468 535.09 280.343 532.207 282.401Z" fill="url(#paint41_radial_46_3)" style="mix-blend-mode:color-dodge"/>
<path d="M531.795 282.401C524.243 282.401 518.11 282.127 518.11 281.807C518.11 281.487 524.243 281.212 531.795 281.212C539.347 281.212 545.48 281.487 545.48 281.807C545.48 282.127 539.347 282.401 531.795 282.401Z" fill="url(#paint42_radial_46_3)" style="mix-blend-mode:color-dodge"/>
<path d="M530.926 282.721C526.395 278.194 523.099 274.124 523.603 273.621C524.106 273.118 528.18 276.41 532.711 280.938C537.242 285.465 540.537 289.536 540.034 290.039C539.53 290.542 535.457 287.249 530.926 282.721Z" fill="url(#paint43_radial_46_3)" style="mix-blend-mode:color-dodge"/>
<path d="M532.299 282.035C529.965 288.209 527.859 293.149 527.585 293.057C527.31 292.966 528.958 287.844 531.292 281.67C533.626 275.496 535.731 270.556 536.006 270.648C536.281 270.739 534.633 275.862 532.299 282.035Z" fill="url(#paint44_radial_46_3)" style="mix-blend-mode:color-dodge"/>
<path d="M230.589 476.081C233.547 476.081 235.944 473.685 235.944 470.73C235.944 467.775 233.547 465.379 230.589 465.379C227.632 465.379 225.234 467.775 225.234 470.73C225.234 473.685 227.632 476.081 230.589 476.081Z" fill="url(#paint45_radial_46_3)" style="mix-blend-mode:color-dodge"/>
<path d="M231.093 470.638C231.688 473.291 231.917 475.486 231.642 475.532C231.367 475.578 230.635 473.52 230.04 470.867C229.445 468.215 229.216 466.019 229.491 465.974C229.765 465.928 230.498 467.986 231.093 470.638Z" fill="url(#paint46_radial_46_3)" style="mix-blend-mode:color-dodge"/>
<path d="M231.001 471.279C228.118 473.291 225.646 474.709 225.418 474.389C225.189 474.068 227.34 472.193 230.223 470.135C233.107 468.123 235.578 466.705 235.807 467.026C236.036 467.346 233.885 469.221 231.001 471.279Z" fill="url(#paint47_radial_46_3)" style="mix-blend-mode:color-dodge"/>
<path d="M230.589 471.324C223.037 471.324 216.904 471.05 216.904 470.73C216.904 470.41 223.037 470.135 230.589 470.135C238.141 470.135 244.274 470.41 244.274 470.73C244.274 471.05 238.141 471.324 230.589 471.324Z" fill="url(#paint48_radial_46_3)" style="mix-blend-mode:color-dodge"/>
<path d="M229.72 471.644C225.188 467.117 221.893 463.047 222.397 462.544C222.9 462.041 226.973 465.333 231.505 469.861C236.036 474.388 239.331 478.459 238.828 478.962C238.324 479.465 234.251 476.172 229.72 471.644Z" fill="url(#paint49_radial_46_3)" style="mix-blend-mode:color-dodge"/>
<path d="M231.093 470.913C228.759 477.087 226.653 482.026 226.379 481.934C226.104 481.843 227.752 476.721 230.086 470.547C232.42 464.373 234.525 459.434 234.8 459.525C235.075 459.617 233.427 464.739 231.093 470.913Z" fill="url(#paint50_radial_46_3)" style="mix-blend-mode:color-dodge"/>
<path d="M320.297 393.944C327.197 393.944 332.792 388.354 332.792 381.459C332.792 374.564 327.197 368.974 320.297 368.974C313.396 368.974 307.802 374.564 307.802 381.459C307.802 388.354 313.396 393.944 320.297 393.944Z" fill="url(#paint51_radial_46_3)" style="mix-blend-mode:color-dodge"/>
<path d="M320.296 401.993C331.646 401.993 340.847 392.8 340.847 381.459C340.847 370.118 331.646 360.925 320.296 360.925C308.947 360.925 299.746 370.118 299.746 381.459C299.746 392.8 308.947 401.993 320.296 401.993Z" fill="url(#paint52_radial_46_3)" style="mix-blend-mode:color-dodge"/>
<path d="M321.486 381.185C322.86 387.359 323.455 392.481 322.814 392.618C322.173 392.755 320.48 387.907 319.106 381.733C317.733 375.56 317.138 370.437 317.825 370.3C318.511 370.163 320.159 375.011 321.532 381.185H321.486Z" fill="url(#paint53_radial_46_3)" style="mix-blend-mode:color-dodge"/>
<path d="M321.212 382.785C314.53 387.541 308.717 390.789 308.214 390.057C307.71 389.325 312.699 384.935 319.381 380.178C326.064 375.422 331.876 372.175 332.38 372.907C332.883 373.639 327.894 378.029 321.212 382.785Z" fill="url(#paint54_radial_46_3)" style="mix-blend-mode:color-dodge"/>
<path d="M320.297 382.831C302.675 382.831 288.396 382.237 288.396 381.459C288.396 380.682 302.675 380.087 320.297 380.087C337.918 380.087 352.198 380.682 352.198 381.459C352.198 382.237 337.918 382.831 320.297 382.831Z" fill="url(#paint55_radial_46_3)" style="mix-blend-mode:color-dodge"/>
<path d="M318.237 383.517C307.664 372.953 300.021 363.486 301.165 362.343C302.309 361.199 311.784 368.837 322.356 379.401C332.929 389.965 340.572 399.432 339.428 400.575C338.284 401.719 328.81 394.081 318.237 383.517Z" fill="url(#paint56_radial_46_3)" style="mix-blend-mode:color-dodge"/>
<path d="M321.441 381.916C316.04 396.322 311.143 407.847 310.502 407.618C309.861 407.39 313.752 395.499 319.153 381.047C324.553 366.642 329.451 355.117 330.091 355.345C330.732 355.574 326.842 367.465 321.441 381.916Z" fill="url(#paint57_radial_46_3)" style="mix-blend-mode:color-dodge"/>
<path d="M312.745 211.424C317.32 211.424 321.029 207.718 321.029 203.146C321.029 198.574 317.32 194.868 312.745 194.868C308.169 194.868 304.46 198.574 304.46 203.146C304.46 207.718 308.169 211.424 312.745 211.424Z" fill="url(#paint58_radial_46_3)" style="mix-blend-mode:color-dodge"/>
<path d="M312.745 216.774C320.277 216.774 326.384 210.673 326.384 203.146C326.384 195.619 320.277 189.518 312.745 189.518C305.212 189.518 299.105 195.619 299.105 203.146C299.105 210.673 305.212 216.774 312.745 216.774Z" fill="url(#paint59_radial_46_3)" style="mix-blend-mode:color-dodge"/>
<path d="M313.569 202.963C314.484 207.033 314.896 210.463 314.438 210.555C313.981 210.646 312.882 207.399 311.967 203.329C311.051 199.259 310.639 195.829 311.097 195.737C311.555 195.646 312.653 198.893 313.569 202.963Z" fill="url(#paint60_radial_46_3)" style="mix-blend-mode:color-dodge"/>
<path d="M313.386 204.015C308.946 207.171 305.056 209.32 304.735 208.863C304.415 208.405 307.71 205.433 312.15 202.323C316.59 199.213 320.48 197.018 320.8 197.475C321.121 197.932 317.825 200.905 313.386 204.015Z" fill="url(#paint61_radial_46_3)" style="mix-blend-mode:color-dodge"/>
<path d="M312.745 204.061C324.448 204.061 333.936 203.651 333.936 203.146C333.936 202.641 324.448 202.231 312.745 202.231C301.041 202.231 291.554 202.641 291.554 203.146C291.554 203.651 301.041 204.061 312.745 204.061Z" fill="url(#paint62_radial_46_3)" style="mix-blend-mode:color-dodge"/>
<path d="M325.442 215.874C326.192 215.124 321.106 208.826 314.082 201.807C307.058 194.788 300.755 189.706 300.004 190.456C299.253 191.206 304.339 197.504 311.363 204.523C318.388 211.542 324.691 216.624 325.442 215.874Z" fill="url(#paint63_radial_46_3)" style="mix-blend-mode:color-dodge"/>
<path d="M313.523 203.42C309.907 212.979 306.658 220.616 306.246 220.479C305.834 220.342 308.397 212.43 311.967 202.826C315.537 193.222 318.832 185.63 319.244 185.767C319.656 185.905 317.093 193.816 313.523 203.42Z" fill="url(#paint64_radial_46_3)" style="mix-blend-mode:color-dodge"/>
<path d="M398.881 346.107C400.254 352.144 400.804 357.175 400.163 357.312C399.522 357.449 397.874 352.693 396.547 346.656C395.22 340.619 394.625 335.589 395.266 335.452C395.906 335.314 397.554 340.071 398.881 346.107Z" fill="url(#paint65_radial_46_3)" style="mix-blend-mode:color-dodge"/>
<path d="M398.607 347.662C392.062 352.327 386.341 355.483 385.837 354.797C385.334 354.111 390.231 349.766 396.776 345.101C403.321 340.437 409.042 337.281 409.546 337.967C410.049 338.653 405.152 342.998 398.607 347.662Z" fill="url(#paint66_radial_46_3)" style="mix-blend-mode:color-dodge"/>
<path d="M397.692 347.708C380.391 347.708 366.386 347.114 366.386 346.382C366.386 345.65 380.391 345.056 397.692 345.056C414.992 345.056 428.998 345.65 428.998 346.382C428.998 347.114 414.992 347.708 397.692 347.708Z" fill="url(#paint67_radial_46_3)" style="mix-blend-mode:color-dodge"/>
<path d="M395.678 348.394C385.334 338.058 377.828 328.729 378.926 327.631C380.025 326.534 389.361 333.988 399.705 344.37C410.049 354.705 417.555 364.035 416.457 365.132C415.358 366.23 406.021 358.775 395.678 348.394Z" fill="url(#paint68_radial_46_3)" style="mix-blend-mode:color-dodge"/>
<path d="M398.79 346.793C393.481 360.925 388.675 372.221 388.034 371.992C387.394 371.764 391.192 360.102 396.502 345.97C401.811 331.839 406.617 320.543 407.257 320.771C407.898 321 404.099 332.662 398.79 346.793Z" fill="url(#paint69_radial_46_3)" style="mix-blend-mode:color-dodge"/>
<path d="M317.917 376.245C317.917 379.95 314.896 382.968 311.189 382.968C307.481 382.968 304.46 379.95 304.46 376.245C304.46 372.541 307.481 369.523 311.189 369.523C314.896 369.523 317.917 372.541 317.917 376.245Z" fill="url(#paint70_radial_46_3)" style="mix-blend-mode:color-dodge"/>
<path d="M311.188 387.313C317.306 387.313 322.265 382.358 322.265 376.245C322.265 370.133 317.306 365.178 311.188 365.178C305.071 365.178 300.112 370.133 300.112 376.245C300.112 382.358 305.071 387.313 311.188 387.313Z" fill="url(#paint71_radial_46_3)" style="mix-blend-mode:color-dodge"/>
<path d="M311.83 376.108C312.562 379.447 312.882 382.191 312.516 382.282C312.15 382.374 311.28 379.721 310.502 376.428C309.77 373.09 309.45 370.346 309.816 370.254C310.182 370.163 311.051 372.815 311.83 376.108Z" fill="url(#paint72_radial_46_3)" style="mix-blend-mode:color-dodge"/>
<path d="M311.692 376.931C308.077 379.492 304.964 381.23 304.69 380.864C304.415 380.499 307.115 378.075 310.685 375.559C314.255 373.044 317.413 371.261 317.688 371.626C317.963 371.992 315.262 374.416 311.692 376.931Z" fill="url(#paint73_radial_46_3)" style="mix-blend-mode:color-dodge"/>
<path d="M311.189 376.977C320.693 376.977 328.398 376.65 328.398 376.245C328.398 375.841 320.693 375.514 311.189 375.514C301.684 375.514 293.979 375.841 293.979 376.245C293.979 376.65 301.684 376.977 311.189 376.977Z" fill="url(#paint74_radial_46_3)" style="mix-blend-mode:color-dodge"/>
<path d="M310.09 377.343C304.415 371.672 300.296 366.55 300.891 365.956C301.486 365.361 306.612 369.477 312.287 375.148C317.962 380.819 322.082 385.941 321.487 386.535C320.892 387.13 315.766 383.014 310.09 377.343Z" fill="url(#paint75_radial_46_3)" style="mix-blend-mode:color-dodge"/>
<path d="M311.83 376.474C308.9 384.249 306.292 390.423 305.925 390.331C305.605 390.194 307.665 383.791 310.594 376.017C313.523 368.242 316.132 362.068 316.498 362.16C316.818 362.297 314.759 368.7 311.83 376.474Z" fill="url(#paint76_radial_46_3)" style="mix-blend-mode:color-dodge"/>
<path d="M413.665 457.01C417.609 457.01 420.805 453.816 420.805 449.876C420.805 445.935 417.609 442.741 413.665 442.741C409.722 442.741 406.525 445.935 406.525 449.876C406.525 453.816 409.722 457.01 413.665 457.01Z" fill="url(#paint77_radial_46_3)" style="mix-blend-mode:color-dodge"/>
<path d="M413.665 461.629C420.161 461.629 425.428 456.367 425.428 449.876C425.428 443.384 420.161 438.122 413.665 438.122C407.169 438.122 401.902 443.384 401.902 449.876C401.902 456.367 407.169 461.629 413.665 461.629Z" fill="url(#paint78_radial_46_3)" style="mix-blend-mode:color-dodge"/>
<path d="M414.352 449.738C415.13 453.26 415.496 456.187 415.084 456.278C414.718 456.37 413.757 453.58 412.979 450.059C412.201 446.537 411.834 443.61 412.246 443.519C412.612 443.427 413.574 446.217 414.352 449.738Z" fill="url(#paint79_radial_46_3)" style="mix-blend-mode:color-dodge"/>
<path d="M414.214 450.607C410.369 453.306 407.074 455.181 406.754 454.769C406.479 454.357 409.317 451.842 413.161 449.098C417.006 446.4 420.301 444.525 420.622 444.936C420.896 445.348 418.059 447.863 414.214 450.607Z" fill="url(#paint80_radial_46_3)" style="mix-blend-mode:color-dodge"/>
<path d="M413.665 450.653C403.596 450.653 395.403 450.287 395.403 449.876C395.403 449.464 403.596 449.098 413.665 449.098C423.734 449.098 431.927 449.464 431.927 449.876C431.927 450.287 423.734 450.653 413.665 450.653Z" fill="url(#paint81_radial_46_3)" style="mix-blend-mode:color-dodge"/>
<path d="M412.475 451.065C406.433 445.028 402.039 439.586 402.726 438.945C403.412 438.305 408.813 442.65 414.855 448.687C420.896 454.723 425.29 460.166 424.604 460.806C423.963 461.446 418.516 457.101 412.475 451.065Z" fill="url(#paint82_radial_46_3)" style="mix-blend-mode:color-dodge"/>
<path d="M414.306 450.104C411.194 458.336 408.402 464.922 408.036 464.785C407.67 464.647 409.867 457.833 412.979 449.601C416.091 441.369 418.883 434.784 419.249 434.921C419.616 435.058 417.419 441.872 414.306 450.104Z" fill="url(#paint83_radial_46_3)" style="mix-blend-mode:color-dodge"/>
<path d="M497.286 42.3488C497.286 46.3275 494.082 49.5288 490.1 49.5288C486.118 49.5288 482.914 46.3275 482.914 42.3488C482.914 38.37 486.118 35.1687 490.1 35.1687C494.082 35.1687 497.286 38.37 497.286 42.3488Z" fill="url(#paint84_radial_46_3)" style="mix-blend-mode:color-dodge"/>
<path d="M490.099 54.1479C496.621 54.1479 501.908 48.8652 501.908 42.3488C501.908 35.8323 496.621 30.5497 490.099 30.5497C483.578 30.5497 478.291 35.8323 478.291 42.3488C478.291 48.8652 483.578 54.1479 490.099 54.1479Z" fill="url(#paint85_radial_46_3)" style="mix-blend-mode:color-dodge"/>
<path d="M490.786 42.2116C491.564 45.733 491.93 48.6599 491.519 48.7514C491.152 48.8428 490.191 46.0531 489.413 42.486C488.635 38.9645 488.269 36.0376 488.681 35.9461C489.047 35.8547 490.008 38.6444 490.786 42.2116Z" fill="url(#paint86_radial_46_3)" style="mix-blend-mode:color-dodge"/>
<path d="M490.649 43.1262C486.804 45.8245 483.463 47.6995 483.188 47.2879C482.914 46.8763 485.751 44.361 489.596 41.617C493.441 38.9188 496.782 37.0437 497.056 37.4553C497.331 37.8669 494.493 40.428 490.649 43.1262Z" fill="url(#paint87_radial_46_3)" style="mix-blend-mode:color-dodge"/>
<path d="M490.1 43.1262C479.985 43.1262 471.792 42.7604 471.792 42.3488C471.792 41.9372 479.985 41.5713 490.1 41.5713C500.215 41.5713 508.407 41.9372 508.407 42.3488C508.407 42.7604 500.215 43.1262 490.1 43.1262Z" fill="url(#paint88_radial_46_3)" style="mix-blend-mode:color-dodge"/>
<path d="M488.909 43.5378C482.868 37.5011 478.474 32.0588 479.115 31.3728C479.756 30.6868 485.202 35.1229 491.289 41.1597C497.331 47.2422 501.725 52.6387 501.084 53.3247C500.443 53.9649 494.997 49.5746 488.909 43.5378Z" fill="url(#paint89_radial_46_3)" style="mix-blend-mode:color-dodge"/>
<path d="M490.74 42.6232C487.628 50.9008 484.836 57.4864 484.47 57.3492C484.104 57.212 486.346 50.3978 489.413 42.1201C492.525 33.8424 495.317 27.2569 495.683 27.3941C496.049 27.5313 493.807 34.3455 490.74 42.6232Z" fill="url(#paint90_radial_46_3)" style="mix-blend-mode:color-dodge"/>
<path d="M395.312 406.658C395.312 410.637 392.108 413.838 388.126 413.838C384.144 413.838 380.94 410.637 380.94 406.658C380.94 402.679 384.144 399.478 388.126 399.478C392.108 399.478 395.312 402.679 395.312 406.658Z" fill="url(#paint91_radial_46_3)" style="mix-blend-mode:color-dodge"/>
<path d="M388.812 406.475C389.591 409.996 389.957 412.923 389.545 413.015C389.179 413.106 388.217 410.317 387.394 406.749C386.616 403.228 386.249 400.301 386.661 400.21C387.027 400.118 387.989 402.908 388.812 406.475Z" fill="url(#paint92_radial_46_3)" style="mix-blend-mode:color-dodge"/>
<path d="M388.675 407.39C384.83 410.088 381.489 411.963 381.215 411.551C380.94 411.14 383.778 408.624 387.622 405.88C391.467 403.182 394.808 401.307 395.083 401.719C395.357 402.13 392.52 404.691 388.675 407.39Z" fill="url(#paint93_radial_46_3)" style="mix-blend-mode:color-dodge"/>
<path d="M388.126 407.435C378.011 407.435 369.818 407.069 369.818 406.658C369.818 406.246 378.011 405.88 388.126 405.88C398.241 405.88 406.434 406.246 406.434 406.658C406.434 407.069 398.241 407.435 388.126 407.435Z" fill="url(#paint94_radial_46_3)" style="mix-blend-mode:color-dodge"/>
<path d="M386.936 407.801C380.849 401.719 376.501 396.322 377.142 395.636C377.782 394.95 383.229 399.386 389.316 405.423C395.358 411.506 399.752 416.902 399.111 417.588C398.47 418.228 393.024 413.838 386.936 407.801Z" fill="url(#paint95_radial_46_3)" style="mix-blend-mode:color-dodge"/>
<path d="M388.812 406.887C385.7 415.164 382.908 421.75 382.542 421.613C382.176 421.475 384.419 414.661 387.485 406.383C390.597 398.106 393.389 391.52 393.756 391.657C394.122 391.795 391.879 398.609 388.812 406.887Z" fill="url(#paint96_radial_46_3)" style="mix-blend-mode:color-dodge"/>
</g>
<defs>
<linearGradient id="paint0_linear_46_3" x1="532.637" y1="663.984" x2="531.377" y2="629.788" gradientUnits="userSpaceOnUse">
<stop offset="0.08" stop-color="#F4F4F4"/>
<stop offset="0.99"/>
</linearGradient>
<linearGradient id="paint1_linear_46_3" x1="618.812" y1="583.144" x2="618.252" y2="568.178" gradientUnits="userSpaceOnUse">
<stop offset="0.08" stop-color="#F4F4F4"/>
<stop offset="0.99"/>
</linearGradient>
<linearGradient id="paint2_linear_46_3" x1="609.866" y1="624.263" x2="608.676" y2="591.955" gradientUnits="userSpaceOnUse">
<stop offset="0.08" stop-color="#F4F4F4"/>
<stop offset="0.99"/>
</linearGradient>
<linearGradient id="paint3_linear_46_3" x1="624.334" y1="651.187" x2="623.424" y2="625.242" gradientUnits="userSpaceOnUse">
<stop offset="0.08" stop-color="#F4F4F4"/>
<stop offset="0.99"/>
</linearGradient>
<linearGradient id="paint4_linear_46_3" x1="114.97" y1="611.256" x2="114.97" y2="646.012" gradientUnits="userSpaceOnUse">
<stop offset="0.08" stop-color="#F4F4F4"/>
<stop offset="0.99"/>
</linearGradient>
<linearGradient id="paint5_linear_46_3" x1="28.236" y1="557.339" x2="28.236" y2="572.584" gradientUnits="userSpaceOnUse">
<stop offset="0.08" stop-color="#F4F4F4"/>
<stop offset="0.99"/>
</linearGradient>
<linearGradient id="paint6_linear_46_3" x1="35.0851" y1="574.192" x2="35.0851" y2="607.06" gradientUnits="userSpaceOnUse">
<stop offset="0.08" stop-color="#F4F4F4"/>
<stop offset="0.99"/>
</linearGradient>
<linearGradient id="paint7_linear_46_3" x1="22.9942" y1="610.067" x2="22.9942" y2="636.361" gradientUnits="userSpaceOnUse">
<stop offset="0.08" stop-color="#F4F4F4"/>
<stop offset="0.99"/>
</linearGradient>
<radialGradient id="paint8_radial_46_3" cx="0" cy="0" r="1" gradientTransform="matrix(115.037 224.142 -181.927 93.2239 943.183 1487.42)" gradientUnits="userSpaceOnUse">
<stop stop-color="#978CB0"/>
<stop offset="1"/>
</radialGradient>
<radialGradient id="paint9_radial_46_3" cx="0" cy="0" r="1" gradientUnits="userSpaceOnUse" gradientTransform="translate(346.339 279.52) scale(21.4199 21.4031)">
<stop stop-color="#848484"/>
<stop offset="1"/>
</radialGradient>
<radialGradient id="paint10_radial_46_3" cx="0" cy="0" r="1" gradientTransform="matrix(2.10733 -0.472989 4.30329 19.1425 399.866 267.318)" gradientUnits="userSpaceOnUse">
<stop stop-color="#F5F5F5"/>
<stop offset="1"/>
</radialGradient>
<radialGradient id="paint11_radial_46_3" cx="0" cy="0" r="1" gradientTransform="matrix(1.61995 2.28107 -20.7533 14.7152 363.126 303.085)" gradientUnits="userSpaceOnUse">
<stop stop-color="#F5F5F5"/>
<stop offset="1"/>
</radialGradient>
<radialGradient id="paint12_radial_46_3" cx="0" cy="0" r="1" gradientUnits="userSpaceOnUse" gradientTransform="translate(344.874 291.382) rotate(90) scale(2.18695 54.7169)">
<stop stop-color="#F5F5F5"/>
<stop offset="1"/>
</radialGradient>
<radialGradient id="paint13_radial_46_3" cx="0" cy="0" r="1" gradientTransform="matrix(-3.61339 3.61055 -32.849 -32.8232 383.552 242.37)" gradientUnits="userSpaceOnUse">
<stop stop-color="#F5F5F5"/>
<stop offset="1"/>
</radialGradient>
<radialGradient id="paint14_radial_46_3" cx="0" cy="0" r="1" gradientTransform="matrix(2.00351 0.749289 -16.7473 44.7098 384.264 295.228)" gradientUnits="userSpaceOnUse">
<stop stop-color="#F5F5F5"/>
<stop offset="1"/>
</radialGradient>
<radialGradient id="paint15_radial_46_3" cx="0" cy="0" r="1" gradientUnits="userSpaceOnUse" gradientTransform="translate(180.106 77.7919) scale(15.8361 15.8236)">
<stop stop-color="#848484"/>
<stop offset="1"/>
</radialGradient>
<radialGradient id="paint16_radial_46_3" cx="0" cy="0" r="1" gradientTransform="matrix(1.55716 -0.349505 3.17982 14.1449 231.189 66.174)" gradientUnits="userSpaceOnUse">
<stop stop-color="#F5F5F5"/>
<stop offset="1"/>
</radialGradient>
<radialGradient id="paint17_radial_46_3" cx="0" cy="0" r="1" gradientTransform="matrix(1.19748 1.68618 -15.341 10.8776 193.618 96.7196)" gradientUnits="userSpaceOnUse">
<stop stop-color="#F5F5F5"/>
<stop offset="1"/>
</radialGradient>
<radialGradient id="paint18_radial_46_3" cx="0" cy="0" r="1" gradientUnits="userSpaceOnUse" gradientTransform="translate(178.733 101.664) rotate(90) scale(1.61621 40.4369)">
<stop stop-color="#F5F5F5"/>
<stop offset="1"/>
</radialGradient>
<radialGradient id="paint19_radial_46_3" cx="0" cy="0" r="1" gradientTransform="matrix(-2.67 2.66789 -24.2727 -24.2536 217.724 40.2539)" gradientUnits="userSpaceOnUse">
<stop stop-color="#F5F5F5"/>
<stop offset="1"/>
</radialGradient>
<radialGradient id="paint20_radial_46_3" cx="0" cy="0" r="1" gradientTransform="matrix(1.48141 0.554031 -12.3831 33.0589 214.444 92.4734)" gradientUnits="userSpaceOnUse">
<stop stop-color="#F5F5F5"/>
<stop offset="1"/>
</radialGradient>
<radialGradient id="paint21_radial_46_3" cx="0" cy="0" r="1" gradientUnits="userSpaceOnUse" gradientTransform="translate(376.638 171.819) scale(8.32996 8.32341)">
<stop stop-color="#848484"/>
<stop offset="1"/>
</radialGradient>
<radialGradient id="paint22_radial_46_3" cx="0" cy="0" r="1" gradientTransform="matrix(0.820336 -0.184124 1.67517 7.45174 431.238 159.36)" gradientUnits="userSpaceOnUse">
<stop stop-color="#F5F5F5"/>
<stop offset="1"/>
</radialGradient>
<radialGradient id="paint23_radial_46_3" cx="0" cy="0" r="1" gradientTransform="matrix(0.632247 0.890273 -8.09977 5.74317 392.537 194.113)" gradientUnits="userSpaceOnUse">
<stop stop-color="#F5F5F5"/>
<stop offset="1"/>
</radialGradient>
<radialGradient id="paint24_radial_46_3" cx="0" cy="0" r="1" gradientUnits="userSpaceOnUse" gradientTransform="translate(375.15 190.099) rotate(90) scale(0.850637 21.2826)">
<stop stop-color="#F5F5F5"/>
<stop offset="1"/>
</radialGradient>
<radialGradient id="paint25_radial_46_3" cx="0" cy="0" r="1" gradientTransform="matrix(-1.4062 1.40509 -12.7836 -12.7736 415.368 133.161)" gradientUnits="userSpaceOnUse">
<stop stop-color="#F5F5F5"/>
<stop offset="1"/>
</radialGradient>
<radialGradient id="paint26_radial_46_3" cx="0" cy="0" r="1" gradientTransform="matrix(0.781857 0.292405 -6.53553 17.4477 414.243 187.742)" gradientUnits="userSpaceOnUse">
<stop stop-color="#F5F5F5"/>
<stop offset="1"/>
</radialGradient>
<radialGradient id="paint27_radial_46_3" cx="0" cy="0" r="1" gradientUnits="userSpaceOnUse" gradientTransform="translate(336.041 130.248) scale(6.17882 6.17396)">
<stop stop-color="#848484"/>
<stop offset="1"/>
</radialGradient>
<radialGradient id="paint28_radial_46_3" cx="0" cy="0" r="1" gradientTransform="matrix(0.604201 -0.135612 1.23381 5.4884 390.037 117.938)" gradientUnits="userSpaceOnUse">
<stop stop-color="#F5F5F5"/>
<stop offset="1"/>
</radialGradient>
<radialGradient id="paint29_radial_46_3" cx="0" cy="0" r="1" gradientTransform="matrix(0.466172 0.656423 -5.97217 4.2346 351.227 151.511)" gradientUnits="userSpaceOnUse">
<stop stop-color="#F5F5F5"/>
<stop offset="1"/>
</radialGradient>
<radialGradient id="paint30_radial_46_3" cx="0" cy="0" r="1" gradientUnits="userSpaceOnUse" gradientTransform="translate(334.576 150.987) rotate(90) scale(0.628374 15.7217)">
<stop stop-color="#F5F5F5"/>
<stop offset="1"/>
</radialGradient>
<radialGradient id="paint31_radial_46_3" cx="0" cy="0" r="1" gradientTransform="matrix(-1.03952 1.0387 -9.45017 -9.44273 374.804 91.5548)" gradientUnits="userSpaceOnUse">
<stop stop-color="#F5F5F5"/>
<stop offset="1"/>
</radialGradient>
<radialGradient id="paint32_radial_46_3" cx="0" cy="0" r="1" gradientTransform="matrix(0.576104 0.215457 -4.81564 12.8562 372.847 145.891)" gradientUnits="userSpaceOnUse">
<stop stop-color="#F5F5F5"/>
<stop offset="1"/>
</radialGradient>
<radialGradient id="paint33_radial_46_3" cx="0" cy="0" r="1" gradientUnits="userSpaceOnUse" gradientTransform="translate(377.508 95.1704) scale(3.15806 3.15558)">
<stop stop-color="#848484"/>
<stop offset="1"/>
</radialGradient>
<radialGradient id="paint34_radial_46_3" cx="0" cy="0" r="1" gradientTransform="matrix(0.309469 -0.0694599 0.631952 2.81113 432.463 82.6357)" gradientUnits="userSpaceOnUse">
<stop stop-color="#F5F5F5"/>
<stop offset="1"/>
</radialGradient>
<radialGradient id="paint35_radial_46_3" cx="0" cy="0" r="1" gradientTransform="matrix(0.236001 0.332314 -3.02342 2.14377 392.601 116.363)" gradientUnits="userSpaceOnUse">
<stop stop-color="#F5F5F5"/>
<stop offset="1"/>
</radialGradient>
<radialGradient id="paint36_radial_46_3" cx="0" cy="0" r="1" gradientUnits="userSpaceOnUse" gradientTransform="translate(375.974 118.012) rotate(90) scale(0.321044 8.03246)">
<stop stop-color="#F5F5F5"/>
<stop offset="1"/>
</radialGradient>
<radialGradient id="paint37_radial_46_3" cx="0" cy="0" r="1" gradientTransform="matrix(-0.526879 0.526465 -4.78981 -4.78604 417.086 55.6446)" gradientUnits="userSpaceOnUse">
<stop stop-color="#F5F5F5"/>
<stop offset="1"/>
</radialGradient>
<radialGradient id="paint38_radial_46_3" cx="0" cy="0" r="1" gradientTransform="matrix(0.293196 0.109652 -2.45082 6.5429 414.628 111.066)" gradientUnits="userSpaceOnUse">
<stop stop-color="#F5F5F5"/>
<stop offset="1"/>
</radialGradient>
<radialGradient id="paint39_radial_46_3" cx="0" cy="0" r="1" gradientUnits="userSpaceOnUse" gradientTransform="translate(531.795 281.853) scale(5.35499 5.35076)">
<stop stop-color="#848484"/>
<stop offset="1"/>
</radialGradient>
<radialGradient id="paint40_radial_46_3" cx="0" cy="0" r="1" gradientTransform="matrix(0.525605 -0.117971 1.07331 4.77445 589.061 268.82)" gradientUnits="userSpaceOnUse">
<stop stop-color="#F5F5F5"/>
<stop offset="1"/>
</radialGradient>
<radialGradient id="paint41_radial_46_3" cx="0" cy="0" r="1" gradientTransform="matrix(0.404987 0.570267 -5.18832 3.67881 549.977 307.304)" gradientUnits="userSpaceOnUse">
<stop stop-color="#F5F5F5"/>
<stop offset="1"/>
</radialGradient>
<radialGradient id="paint42_radial_46_3" cx="0" cy="0" r="1" gradientUnits="userSpaceOnUse" gradientTransform="translate(530.239 293.567) rotate(90) scale(0.546049 13.6621)">
<stop stop-color="#F5F5F5"/>
<stop offset="1"/>
</radialGradient>
<radialGradient id="paint43_radial_46_3" cx="0" cy="0" r="1" gradientTransform="matrix(-0.90424 0.903526 -8.22036 -8.21387 571.028 242.668)" gradientUnits="userSpaceOnUse">
<stop stop-color="#F5F5F5"/>
<stop offset="1"/>
</radialGradient>
<radialGradient id="paint44_radial_46_3" cx="0" cy="0" r="1" gradientTransform="matrix(0.501521 0.187563 -4.19221 11.1918 572.275 298.668)" gradientUnits="userSpaceOnUse">
<stop stop-color="#F5F5F5"/>
<stop offset="1"/>
</radialGradient>
<radialGradient id="paint45_radial_46_3" cx="0" cy="0" r="1" gradientUnits="userSpaceOnUse" gradientTransform="translate(230.589 470.73) scale(5.35498 5.35075)">
<stop stop-color="#848484"/>
<stop offset="1"/>
</radialGradient>
<radialGradient id="paint46_radial_46_3" cx="0" cy="0" r="1" gradientTransform="matrix(0.525604 -0.117972 1.07331 4.77447 280.934 459.285)" gradientUnits="userSpaceOnUse">
<stop stop-color="#F5F5F5"/>
<stop offset="1"/>
</radialGradient>
<radialGradient id="paint47_radial_46_3" cx="0" cy="0" r="1" gradientTransform="matrix(0.404987 0.570267 -5.18833 3.67881 248.526 495.907)" gradientUnits="userSpaceOnUse">
<stop stop-color="#F5F5F5"/>
<stop offset="1"/>
</radialGradient>
<radialGradient id="paint48_radial_46_3" cx="0" cy="0" r="1" gradientUnits="userSpaceOnUse" gradientTransform="translate(229.193 471.217) rotate(90) scale(0.546041 13.6621)">
<stop stop-color="#F5F5F5"/>
<stop offset="1"/>
</radialGradient>
<radialGradient id="paint49_radial_46_3" cx="0" cy="0" r="1" gradientTransform="matrix(-0.904239 0.903528 -8.22035 -8.21389 264.4 436.97)" gradientUnits="userSpaceOnUse">
<stop stop-color="#F5F5F5"/>
<stop offset="1"/>
</radialGradient>
<radialGradient id="paint50_radial_46_3" cx="0" cy="0" r="1" gradientTransform="matrix(0.50152 0.187562 -4.1922 11.1918 268.167 485.801)" gradientUnits="userSpaceOnUse">
<stop stop-color="#F5F5F5"/>
<stop offset="1"/>
</radialGradient>
<radialGradient id="paint51_radial_46_3" cx="0" cy="0" r="1" gradientUnits="userSpaceOnUse" gradientTransform="translate(320.297 381.459) scale(12.495 12.4851)">
<stop stop-color="#848484"/>
<stop offset="1"/>
</radialGradient>
<radialGradient id="paint52_radial_46_3" cx="0" cy="0" r="1" gradientUnits="userSpaceOnUse" gradientTransform="translate(320.296 381.459) scale(20.5503 20.5341)">
<stop stop-color="#848484"/>
<stop offset="1"/>
</radialGradient>
<radialGradient id="paint53_radial_46_3" cx="0" cy="0" r="1" gradientTransform="matrix(1.22805 -0.275634 2.50774 11.1553 372.836 369.521)" gradientUnits="userSpaceOnUse">
<stop stop-color="#F5F5F5"/>
<stop offset="1"/>
</radialGradient>
<radialGradient id="paint54_radial_46_3" cx="0" cy="0" r="1" gradientTransform="matrix(0.944 1.32926 -12.0937 8.57506 337.949 406.242)" gradientUnits="userSpaceOnUse">
<stop stop-color="#F5F5F5"/>
<stop offset="1"/>
</radialGradient>
<radialGradient id="paint55_radial_46_3" cx="0" cy="0" r="1" gradientUnits="userSpaceOnUse" gradientTransform="translate(318.855 387.26) rotate(90) scale(1.2732 31.8552)">
<stop stop-color="#F5F5F5"/>
<stop offset="1"/>
</radialGradient>
<radialGradient id="paint56_radial_46_3" cx="0" cy="0" r="1" gradientTransform="matrix(-2.10396 2.1023 -19.1269 -19.1118 356.09 345.741)" gradientUnits="userSpaceOnUse">
<stop stop-color="#F5F5F5"/>
<stop offset="1"/>
</radialGradient>
<radialGradient id="paint57_radial_46_3" cx="0" cy="0" r="1" gradientTransform="matrix(1.16764 0.436684 -9.7603 26.0568 358.514 397.031)" gradientUnits="userSpaceOnUse">
<stop stop-color="#F5F5F5"/>
<stop offset="1"/>
</radialGradient>
<radialGradient id="paint58_radial_46_3" cx="0" cy="0" r="1" gradientUnits="userSpaceOnUse" gradientTransform="translate(312.745 203.146) scale(8.2842 8.27767)">
<stop stop-color="#848484"/>
<stop offset="1"/>
</radialGradient>
<radialGradient id="paint59_radial_46_3" cx="0" cy="0" r="1" gradientUnits="userSpaceOnUse" gradientTransform="translate(312.745 203.146) scale(13.6392 13.6284)">
<stop stop-color="#848484"/>
<stop offset="1"/>
</radialGradient>
<radialGradient id="paint60_radial_46_3" cx="0" cy="0" r="1" gradientTransform="matrix(0.815424 -0.183022 1.66514 7.40711 365.946 191.029)" gradientUnits="userSpaceOnUse">
<stop stop-color="#F5F5F5"/>
<stop offset="1"/>
</radialGradient>
<radialGradient id="paint61_radial_46_3" cx="0" cy="0" r="1" gradientTransform="matrix(0.626419 0.882067 -8.02511 5.69024 328.515 225.266)" gradientUnits="userSpaceOnUse">
<stop stop-color="#F5F5F5"/>
<stop offset="1"/>
</radialGradient>
<radialGradient id="paint62_radial_46_3" cx="0" cy="0" r="1" gradientUnits="userSpaceOnUse" gradientTransform="translate(311.303 219.57) rotate(90) scale(0.845141 21.1453)">
<stop stop-color="#F5F5F5"/>
<stop offset="1"/>
</radialGradient>
<radialGradient id="paint63_radial_46_3" cx="0" cy="0" r="1" gradientTransform="matrix(-1.39908 1.39798 -12.7189 -12.7089 350.413 165.504)" gradientUnits="userSpaceOnUse">
<stop stop-color="#F5F5F5"/>
<stop offset="1"/>
</radialGradient>
<radialGradient id="paint64_radial_46_3" cx="0" cy="0" r="1" gradientTransform="matrix(0.776713 0.290482 -6.49253 17.3329 349.706 218.701)" gradientUnits="userSpaceOnUse">
<stop stop-color="#F5F5F5"/>
<stop offset="1"/>
</radialGradient>
<radialGradient id="paint65_radial_46_3" cx="0" cy="0" r="1" gradientTransform="matrix(1.20349 -0.270122 2.45759 10.9322 451.946 334.046)" gradientUnits="userSpaceOnUse">
<stop stop-color="#F5F5F5"/>
<stop offset="1"/>
</radialGradient>
<radialGradient id="paint66_radial_46_3" cx="0" cy="0" r="1" gradientTransform="matrix(0.926518 1.30464 -11.8697 8.41626 415.541 371.438)" gradientUnits="userSpaceOnUse">
<stop stop-color="#F5F5F5"/>
<stop offset="1"/>
</radialGradient>
<radialGradient id="paint67_radial_46_3" cx="0" cy="0" r="1" gradientUnits="userSpaceOnUse" gradientTransform="translate(396.158 354.272) rotate(90) scale(1.25126 31.306)">
<stop stop-color="#F5F5F5"/>
<stop offset="1"/>
</radialGradient>
<radialGradient id="paint68_radial_46_3" cx="0" cy="0" r="1" gradientTransform="matrix(-2.0648 2.06317 -18.7709 -18.7561 434.713 309.413)" gradientUnits="userSpaceOnUse">
<stop stop-color="#F5F5F5"/>
<stop offset="1"/>
</radialGradient>
<radialGradient id="paint69_radial_46_3" cx="0" cy="0" r="1" gradientTransform="matrix(1.14707 0.428989 -9.5883 25.5977 436.739 362.423)" gradientUnits="userSpaceOnUse">
<stop stop-color="#F5F5F5"/>
<stop offset="1"/>
</radialGradient>
<radialGradient id="paint70_radial_46_3" cx="0" cy="0" r="1" gradientUnits="userSpaceOnUse" gradientTransform="translate(311.189 376.245) scale(6.72805 6.72274)">
<stop stop-color="#848484"/>
<stop offset="1"/>
</radialGradient>
<radialGradient id="paint71_radial_46_3" cx="0" cy="0" r="1" gradientUnits="userSpaceOnUse" gradientTransform="translate(311.188 376.245) scale(11.0761 11.0674)">
<stop stop-color="#848484"/>
<stop offset="1"/>
</radialGradient>
<radialGradient id="paint72_radial_46_3" cx="0" cy="0" r="1" gradientTransform="matrix(0.663146 -0.148843 1.35418 6.02385 363.569 364.288)" gradientUnits="userSpaceOnUse">
<stop stop-color="#F5F5F5"/>
<stop offset="1"/>
</radialGradient>
<radialGradient id="paint73_radial_46_3" cx="0" cy="0" r="1" gradientTransform="matrix(0.509876 0.717961 -6.53207 4.63158 328.725 400.84)" gradientUnits="userSpaceOnUse">
<stop stop-color="#F5F5F5"/>
<stop offset="1"/>
</radialGradient>
<radialGradient id="paint74_radial_46_3" cx="0" cy="0" r="1" gradientUnits="userSpaceOnUse" gradientTransform="translate(309.724 382.337) rotate(90) scale(0.685994 17.1634)">
<stop stop-color="#F5F5F5"/>
<stop offset="1"/>
</radialGradient>
<radialGradient id="paint75_radial_46_3" cx="0" cy="0" r="1" gradientTransform="matrix(-1.13564 1.13474 -10.324 -10.3159 346.933 340.533)" gradientUnits="userSpaceOnUse">
<stop stop-color="#F5F5F5"/>
<stop offset="1"/>
</radialGradient>
<radialGradient id="paint76_radial_46_3" cx="0" cy="0" r="1" gradientTransform="matrix(0.630116 0.235655 -5.26712 14.0615 349.237 391.795)" gradientUnits="userSpaceOnUse">
<stop stop-color="#F5F5F5"/>
<stop offset="1"/>
</radialGradient>
<radialGradient id="paint77_radial_46_3" cx="0" cy="0" r="1" gradientUnits="userSpaceOnUse" gradientTransform="translate(413.665 449.876) scale(7.13997 7.13436)">
<stop stop-color="#848484"/>
<stop offset="1"/>
</radialGradient>
<radialGradient id="paint78_radial_46_3" cx="0" cy="0" r="1" gradientUnits="userSpaceOnUse" gradientTransform="translate(413.665 449.876) scale(11.7626 11.7534)">
<stop stop-color="#848484"/>
<stop offset="1"/>
</radialGradient>
<radialGradient id="paint79_radial_46_3" cx="0" cy="0" r="1" gradientTransform="matrix(0.702446 -0.157663 1.43443 6.38081 467.789 437.547)" gradientUnits="userSpaceOnUse">
<stop stop-color="#F5F5F5"/>
<stop offset="1"/>
</radialGradient>
<radialGradient id="paint80_radial_46_3" cx="0" cy="0" r="1" gradientTransform="matrix(0.539011 0.758989 -6.90532 4.89626 432.701 476.602)" gradientUnits="userSpaceOnUse">
<stop stop-color="#F5F5F5"/>
<stop offset="1"/>
</radialGradient>
<radialGradient id="paint81_radial_46_3" cx="0" cy="0" r="1" gradientUnits="userSpaceOnUse" gradientTransform="translate(412.155 451.598) rotate(90) scale(0.729907 18.2618)">
<stop stop-color="#F5F5F5"/>
<stop offset="1"/>
</radialGradient>
<radialGradient id="paint82_radial_46_3" cx="0" cy="0" r="1" gradientTransform="matrix(-1.20328 1.20233 -10.9389 -10.9303 449.732 413.862)" gradientUnits="userSpaceOnUse">
<stop stop-color="#F5F5F5"/>
<stop offset="1"/>
</radialGradient>
<radialGradient id="paint83_radial_46_3" cx="0" cy="0" r="1" gradientTransform="matrix(0.668694 0.250083 -5.5896 14.9224 453.611 466.034)" gradientUnits="userSpaceOnUse">
<stop stop-color="#F5F5F5"/>
<stop offset="1"/>
</radialGradient>
<radialGradient id="paint84_radial_46_3" cx="0" cy="0" r="1" gradientUnits="userSpaceOnUse" gradientTransform="translate(490.1 42.3488) scale(7.18574 7.18008)">
<stop stop-color="#848484"/>
<stop offset="1"/>
</radialGradient>
<radialGradient id="paint85_radial_46_3" cx="0" cy="0" r="1" gradientUnits="userSpaceOnUse" gradientTransform="translate(490.099 42.3488) scale(11.8084 11.7991)">
<stop stop-color="#848484"/>
<stop offset="1"/>
</radialGradient>
<radialGradient id="paint86_radial_46_3" cx="0" cy="0" r="1" gradientTransform="matrix(0.702445 -0.157663 1.43443 6.38082 547.592 29.2809)" gradientUnits="userSpaceOnUse">
<stop stop-color="#F5F5F5"/>
<stop offset="1"/>
</radialGradient>
<radialGradient id="paint87_radial_46_3" cx="0" cy="0" r="1" gradientTransform="matrix(0.541926 0.763091 -6.94265 4.92272 505.493 63.9333)" gradientUnits="userSpaceOnUse">
<stop stop-color="#F5F5F5"/>
<stop offset="1"/>
</radialGradient>
<radialGradient id="paint88_radial_46_3" cx="0" cy="0" r="1" gradientUnits="userSpaceOnUse" gradientTransform="translate(488.566 68.3544) rotate(90) scale(0.732643 18.3305)">
<stop stop-color="#F5F5F5"/>
<stop offset="1"/>
</radialGradient>
<radialGradient id="paint89_radial_46_3" cx="0" cy="0" r="1" gradientTransform="matrix(-1.20684 1.20589 -10.9712 -10.9626 531.514 1.00222)" gradientUnits="userSpaceOnUse">
<stop stop-color="#F5F5F5"/>
<stop offset="1"/>
</radialGradient>
<radialGradient id="paint90_radial_46_3" cx="0" cy="0" r="1" gradientTransform="matrix(0.671265 0.251045 -5.61109 14.9798 528.459 58.8895)" gradientUnits="userSpaceOnUse">
<stop stop-color="#F5F5F5"/>
<stop offset="1"/>
</radialGradient>
<radialGradient id="paint91_radial_46_3" cx="0" cy="0" r="1" gradientUnits="userSpaceOnUse" gradientTransform="translate(388.126 406.658) scale(7.18574 7.18008)">
<stop stop-color="#848484"/>
<stop offset="1"/>
</radialGradient>
<radialGradient id="paint92_radial_46_3" cx="0" cy="0" r="1" gradientTransform="matrix(0.702444 -0.157663 1.43443 6.38081 441.931 394.369)" gradientUnits="userSpaceOnUse">
<stop stop-color="#F5F5F5"/>
<stop offset="1"/>
</radialGradient>
<radialGradient id="paint93_radial_46_3" cx="0" cy="0" r="1" gradientTransform="matrix(0.541926 0.763092 -6.94265 4.92272 406.568 432.454)" gradientUnits="userSpaceOnUse">
<stop stop-color="#F5F5F5"/>
<stop offset="1"/>
</radialGradient>
<radialGradient id="paint94_radial_46_3" cx="0" cy="0" r="1" gradientUnits="userSpaceOnUse" gradientTransform="translate(386.616 410.935) rotate(90) scale(0.732635 18.3305)">
<stop stop-color="#F5F5F5"/>
<stop offset="1"/>
</radialGradient>
<radialGradient id="paint95_radial_46_3" cx="0" cy="0" r="1" gradientTransform="matrix(-1.20684 1.20589 -10.9713 -10.9626 424.394 370.43)" gradientUnits="userSpaceOnUse">
<stop stop-color="#F5F5F5"/>
<stop offset="1"/>
</radialGradient>
<radialGradient id="paint96_radial_46_3" cx="0" cy="0" r="1" gradientTransform="matrix(0.671266 0.251045 -5.6111 14.9798 427.456 422.619)" gradientUnits="userSpaceOnUse">
<stop stop-color="#F5F5F5"/>
<stop offset="1"/>
</radialGradient>
<clipPath id="clip0_46_3">
<rect width="646" height="567" fill="white" transform="translate(0 273)"/>
</clipPath>
<clipPath id="clip1_46_3">
<rect width="430" height="642" fill="white" transform="translate(125)"/>
</clipPath>
</defs>
</svg>
